<svg xmlns="http://www.w3.org/2000/svg" xml:space="preserve" width="755" height="300" viewBox="0 0 180.86 71.82" style="image-rendering:optimizeQuality;shape-rendering:geometricPrecision;text-rendering:geometricPrecision"><defs><style type="text/css">
    .fil0 {fill:#C2C1C1}
    .fil1 {fill:#104085}
   </style></defs>
   <polygon class="fil0" points="24.41 57.21 46.13 14.61 57.63 14.61 35.91 57.21 "/>
   <path class="fil1" d="M24.74 10.35c-7.94 0-14.39 6.1-14.39 13.63l0 33.22 10.22 0 0-34.9c0-1.88 1.63-3.41 3.65-3.41 1.5 0 2.8 0.85 3.31 1.97l16.77 32.82c1.16 2.3 2.97 4.25 5.21 5.62 2.24 1.37 4.92 2.17 7.78 2.17 7.94 0 14.39-6.1 14.39-13.63l0-33.22-10.22 0 0 34.91c0 1.88-1.63 3.41-3.65 3.41-1.5 0-2.8-0.85-3.31-1.97l-16.77-32.82c-2.35-4.69-7.43-7.78-13-7.78z"/><path class="fil1" d="M76.8 36.62l2.99 0 0 10.81c0 1.1 0.01 1.91 0.04 2.43 0.03 0.52 0.13 1.08 0.32 1.69 0.19 0.61 0.48 1.11 0.88 1.5 0.83 0.82 1.91 1.23 3.25 1.23 1.34 0 2.42-0.41 3.25-1.23 0.4-0.39 0.69-0.89 0.88-1.5 0.19-0.61 0.29-1.17 0.32-1.69 0.03-0.52 0.04-1.33 0.04-2.43l0-10.81 2.99 0 0 10.81c0 1.27-0.02 2.22-0.06 2.87-0.04 0.65-0.22 1.41-0.53 2.3-0.31 0.89-0.78 1.65-1.41 2.3-1.4 1.44-3.22 2.15-5.47 2.15-2.25 0-4.07-0.72-5.47-2.15-0.63-0.65-1.1-1.42-1.41-2.3-0.31-0.89-0.49-1.65-0.53-2.3-0.04-0.65-0.06-1.61-0.06-2.87l0-10.81zM108 40.86c-0.85-0.98-2.07-1.47-3.63-1.47-1.57 0-2.78 0.49-3.63 1.47-0.4 0.48-0.7 1.09-0.9 1.85-0.2 0.76-0.31 1.46-0.34 2.1-0.03 0.64-0.04 1.62-0.04 2.94 0 0.95 0.01 1.67 0.04 2.14 0.03 0.48 0.12 1.02 0.28 1.62 0.16 0.6 0.39 1.1 0.71 1.49 0.8 0.95 1.95 1.43 3.46 1.43 1.62 0 2.91-0.5 3.85-1.51 0.46-0.5 0.8-1.12 1.05-1.85 0.24-0.73 0.38-1.35 0.41-1.87 0.03-0.52 0.04-1.25 0.04-2.21 0-1.04-0.01-1.83-0.04-2.39-0.03-0.56-0.14-1.21-0.34-1.95-0.2-0.74-0.5-1.34-0.9-1.79zm-3.42-4.24c2.45 0 4.37 0.83 5.77 2.48 0.6 0.7 1.05 1.54 1.35 2.52 0.3 0.98 0.47 1.81 0.51 2.48 0.04 0.67 0.06 1.64 0.06 2.9 0 1.18-0.03 2.09-0.09 2.75-0.06 0.66-0.27 1.5-0.64 2.52-0.37 1.02-0.93 1.9-1.67 2.63-1.57 1.54-3.55 2.31-5.94 2.31-2.68 0-4.69-0.92-6.03-2.77-0.46-0.62-0.8-1.33-1.03-2.14-0.23-0.81-0.36-1.53-0.38-2.16-0.03-0.63-0.04-1.6-0.04-2.92l0-22.67 2.99 0 0 14.64c1.23-1.71 2.93-2.56 5.13-2.56zM120.13 52.67c0.88 1.18 2.31 1.76 4.27 1.76 1.91 0 3.65-0.41 5.21-1.22l1.24 2.52c-1.97 0.98-4.12 1.47-6.45 1.47-2.99 0-5.21-0.95-6.67-2.86-0.51-0.67-0.89-1.46-1.13-2.37-0.24-0.91-0.38-1.68-0.43-2.31-0.04-0.63-0.06-1.55-0.06-2.75 0-1.34 0.02-2.33 0.06-2.96 0.04-0.63 0.18-1.34 0.41-2.14 0.23-0.8 0.58-1.53 1.07-2.21 1.42-1.99 3.75-2.98 6.97-2.98 2.11 0 3.82 0.52 5.13 1.55 1.37 1.12 2.08 2.53 2.14 4.24 0 1.74-0.71 3.11-2.14 4.12-0.57 0.39-1.22 0.69-1.94 0.88-0.73 0.2-1.38 0.31-1.97 0.34-0.58 0.03-1.5 0.04-2.76 0.04l-3.93 0c0 2.38 0.33 4 0.98 4.87zm8.76-10.25c-0.06-0.9-0.43-1.61-1.11-2.14-0.74-0.59-1.79-0.88-3.16-0.88-1.99 0-3.46 0.55-4.4 1.64-0.71 0.81-1.07 2.2-1.07 4.16l3.93 0c1.54 0 2.61-0.04 3.23-0.1 0.61-0.07 1.13-0.26 1.56-0.57 0.68-0.5 1.03-1.2 1.03-2.1z"/>
   <polygon class="fil1" points="135.43 36.62 138.8 36.62 143.25 44.46 147.78 36.62 151.07 36.62 144.91 46.83 151.2 57.21 147.82 57.21 143.25 49.15 138.59 57.21 135.3 57.21 141.58 46.83 "/>
   <polygon class="fil1" points="154.74 36.62 158.12 36.62 162.56 44.46 167.09 36.62 170.38 36.62 164.23 46.83 170.51 57.21 167.13 57.21 162.56 49.15 157.9 57.21 154.61 57.21 160.9 46.83 "/>
</svg>